<svg id="Layer_1" data-name="Layer 1" xmlns="http://www.w3.org/2000/svg" xmlns:xlink="http://www.w3.org/1999/xlink" viewBox="0 0 67.21 80.05"><defs><style>.cls-1{fill:none;}.cls-2,.cls-4{fill:#fb7448;}.cls-3{clip-path:url(#clip-path);}.cls-4{fill-rule:evenodd;}</style><clipPath id="clip-path" transform="translate(0 0)"><rect class="cls-1" width="67.21" height="80.05"/></clipPath></defs><title>orange-icon</title><polygon class="cls-2" points="27.33 33 27.33 38.5 55.39 38.5 34.3 80 41.51 80 62.83 37 62.83 33 27.33 33"/><g class="cls-3"><path class="cls-4" d="M46.14,6.81a1.06,1.06,0,0,0,.07-.37c0-.25,0-.56-.1-.56h4.12a3.06,3.06,0,0,0,2.83-3V2.31C53.06.84,51.79,0,50.23,0H32.42c-1.57,0-2.84.84-2.84,2.31v.55a3.06,3.06,0,0,0,2.84,3H36c-.07,0-.11.31-.11.56a1.56,1.56,0,0,0,0,.26A42.44,42.44,0,0,0,12.66,17.48C4.5,24.92,0,34.64,0,44.86,0,60.49,9.67,74,23.52,80.05l2.77-5.34C14.35,69.63,6,58.17,6,44.86,6,26.3,24.13,12.42,40.33,12.42A40.2,40.2,0,0,1,64.5,20.73l2.71-5.49A46.22,46.22,0,0,0,46.14,6.81" transform="translate(0 0)"/></g></svg>