<svg id="Layer_1" data-name="Layer 1" xmlns="http://www.w3.org/2000/svg" xmlns:xlink="http://www.w3.org/1999/xlink" viewBox="0 0 241.49 80.05"><defs><style>.cls-1{fill:none;}.cls-2,.cls-4{fill:#020202;}.cls-3{clip-path:url(#clip-path);}.cls-4,.cls-5{fill-rule:evenodd;}.cls-5{fill:#fb7448;}</style><clipPath id="clip-path" transform="translate(0 0)"><rect class="cls-1" width="241.49" height="80.05"/></clipPath></defs><title>logo-white</title><polygon class="cls-2" points="126.61 33.35 126.61 53.18 107.68 53.18 107.68 33.35 102.19 33.35 102.19 79.11 107.68 79.11 107.68 57.98 126.61 57.98 126.61 79.11 132.03 79.11 132.03 33.35 126.61 33.35"/><rect class="cls-2" x="141.11" y="33.35" width="5.49" height="45.75"/><polygon class="cls-2" points="155.59 33.35 155.59 79.11 161.08 79.11 161.08 58.12 178.64 58.12 178.64 53.25 161.08 53.25 161.08 38.22 179.12 38.22 179.12 33.35 155.59 33.35"/><polygon class="cls-2" points="183.75 33.35 183.75 38.22 194.66 38.22 194.66 79.11 200.08 79.11 200.08 38.22 210.99 38.22 210.99 33.35 183.75 33.35"/><g class="cls-3"><path class="cls-2" d="M213.85,74.17l3-4.19a14.05,14.05,0,0,0,10.7,5.08c5.77,0,8.37-3.64,8.37-7.55,0-11.11-20.71-8.16-20.71-22.91,0-7,5.55-12,13.17-12,5.07,0,9.26,1.71,12.21,4.87l-2.82,4.12a12.43,12.43,0,0,0-9.53-4.12c-4.25,0-7.48,2.74-7.48,6.86,0,9.67,20.72,7.55,20.72,22.84,0,6.72-4.39,12.76-13.93,12.76a17.83,17.83,0,0,1-13.71-5.76" transform="translate(0 0)"/><path class="cls-2" d="M68.61,74.17l3-4.19a14,14,0,0,0,10.7,5.08c5.77,0,8.37-3.64,8.37-7.55C90.7,56.4,70,59.35,70,44.6c0-7,5.56-12,13.18-12,5.07,0,9.26,1.71,12.21,4.87l-2.82,4.12A12.43,12.43,0,0,0,83,37.47c-4.25,0-7.48,2.74-7.48,6.86,0,9.67,20.72,7.55,20.72,22.84,0,6.72-4.39,12.76-13.93,12.76a17.87,17.87,0,0,1-13.72-5.76" transform="translate(0 0)"/><polygon class="cls-4" points="55.39 38.5 27.33 38.5 27.33 33 62.83 33 62.83 37 41.51 80 34.3 80 55.39 38.5"/><path class="cls-5" d="M46.14,6.81a1.06,1.06,0,0,0,.07-.37c0-.25,0-.56-.1-.56h4.12a3.06,3.06,0,0,0,2.83-3V2.31C53.06.84,51.79,0,50.23,0H32.42c-1.57,0-2.84.84-2.84,2.31v.55a3.06,3.06,0,0,0,2.84,3H36c-.07,0-.11.31-.11.56a1.56,1.56,0,0,0,0,.26A42.44,42.44,0,0,0,12.66,17.48C4.5,24.92,0,34.64,0,44.86,0,60.49,9.67,74,23.52,80.05l2.77-5.34C14.35,69.63,6,58.17,6,44.86,6,26.3,24.13,12.42,40.33,12.42A40.2,40.2,0,0,1,64.5,20.73l2.71-5.49A46.22,46.22,0,0,0,46.14,6.81" transform="translate(0 0)"/></g></svg>